<?xml version="1.0" encoding="utf-8"?>
<!-- Generator: Adobe Illustrator 24.1.1, SVG Export Plug-In . SVG Version: 6.00 Build 0)  -->
<svg version="1.1" xmlns="http://www.w3.org/2000/svg" xmlns:xlink="http://www.w3.org/1999/xlink" x="0px" y="0px"
	 viewBox="0 0 32 32" style="enable-background:new 0 0 32 32;" xml:space="preserve">
<style type="text/css">
	.st0{fill:none;stroke:#FFFFFF;stroke-width:0.5;stroke-linecap:round;stroke-linejoin:round;stroke-miterlimit:10;}
	.st1{fill:#FFFFFF;}
	.st2{fill:none;stroke:#000000;stroke-miterlimit:10;}
	.st3{fill:none;stroke:#000000;stroke-linecap:round;stroke-miterlimit:10;}
	.st4{fill:none;stroke:#000000;stroke-width:2;stroke-linecap:round;stroke-miterlimit:10;}
	.st5{fill:none;stroke:#FFFFFF;stroke-width:0.75;stroke-miterlimit:10;}
	.st6{fill:none;stroke:#FFFFFF;stroke-width:0.75;stroke-linecap:round;stroke-miterlimit:10;}
	.st7{fill:none;stroke:#FFFFFF;stroke-linecap:round;stroke-miterlimit:10;}
	.st8{fill:none;stroke:#FFFFFF;stroke-width:0.75;stroke-linecap:round;stroke-miterlimit:10;stroke-dasharray:2;}
</style>
<g id="Layer_1">
	<g>
		<circle cx="16.46" cy="18.96" r="10.59"/>
		<g>
			<path d="M16.46,27.13c-4.5,0-8.16-3.66-8.16-8.16c0-4.5,3.66-8.16,8.16-8.16s8.16,3.66,8.16,8.16
				C24.62,23.46,20.96,27.13,16.46,27.13z"/>
			<path class="st1" d="M16.46,11.05c4.36,0,7.91,3.55,7.91,7.91s-3.55,7.91-7.91,7.91s-7.91-3.55-7.91-7.91S12.1,11.05,16.46,11.05
				 M16.46,10.55c-4.65,0-8.41,3.77-8.41,8.41s3.77,8.41,8.41,8.41s8.41-3.77,8.41-8.41S21.11,10.55,16.46,10.55L16.46,10.55z"/>
		</g>
	</g>
	<path d="M2.93,4.79l0.02,4.72c0,0.14-0.11,0.25-0.25,0.25S2.45,9.66,2.45,9.52l0.02-4.72H1.39v5.33c0,1.17,0.95,2.12,2.12,2.12
		c1.17,0,2.12-0.95,2.12-2.12V4.79H4.53l0.02,4.72c0,0.14-0.11,0.25-0.25,0.25S4.05,9.66,4.05,9.52L4.04,4.79H2.93z"/>
	<path d="M3.51,22.96L3.51,22.96c-0.44,0-0.79-0.35-0.79-0.79l0.35-11.79h0.9L4.3,22.17C4.3,22.61,3.95,22.96,3.51,22.96z"/>
	<g>
		<path d="M28.96,22.96L28.96,22.96c-0.44,0-0.79-0.35-0.79-0.79l0.35-11.79h0.9l0.33,11.79C29.76,22.61,29.4,22.96,28.96,22.96z"/>
		<ellipse cx="28.96" cy="8.38" rx="2.28" ry="3.37"/>
	</g>
</g>
<g id="Layer_2">
</g>
</svg>
