<?xml version="1.0" encoding="utf-8"?>
<!-- Generator: Adobe Illustrator 24.1.1, SVG Export Plug-In . SVG Version: 6.00 Build 0)  -->
<svg version="1.1" xmlns="http://www.w3.org/2000/svg" xmlns:xlink="http://www.w3.org/1999/xlink" x="0px" y="0px"
	 viewBox="0 0 32 32" style="enable-background:new 0 0 32 32;" xml:space="preserve">
<style type="text/css">
	.st0{fill:none;stroke:#FFFFFF;stroke-width:0.5;stroke-linecap:round;stroke-linejoin:round;stroke-miterlimit:10;}
	.st1{fill:#FFFFFF;}
	.st2{fill:none;stroke:#000000;stroke-miterlimit:10;}
	.st3{fill:none;stroke:#000000;stroke-linecap:round;stroke-miterlimit:10;}
	.st4{fill:none;stroke:#000000;stroke-width:2;stroke-linecap:round;stroke-miterlimit:10;}
	.st5{fill:none;stroke:#FFFFFF;stroke-width:0.75;stroke-miterlimit:10;}
	.st6{fill:none;stroke:#FFFFFF;stroke-width:0.75;stroke-linecap:round;stroke-miterlimit:10;}
	.st7{fill:none;stroke:#FFFFFF;stroke-linecap:round;stroke-miterlimit:10;}
	.st8{fill:none;stroke:#FFFFFF;stroke-width:0.75;stroke-linecap:round;stroke-miterlimit:10;stroke-dasharray:2;}
</style>
<g id="Layer_1">
</g>
<g id="Layer_2">
	<path d="M15.27,8.39c-0.05-0.05-4.71-5.66-7.47-2.56C5.04,8.94,7.4,11.3,7.4,11.3s6.79,0.07,9,0.03c2.22,0.04,9-0.03,9-0.03
		s2.36-2.36-0.4-5.46c-2.76-3.11-7.42,2.51-7.47,2.56"/>
	<line class="st6" x1="17.36" y1="8.26" x2="17.36" y2="11.99"/>
	<line class="st6" x1="15.55" y1="8.22" x2="15.55" y2="11.95"/>
	<path class="st6" d="M17.51,11.17c0.55,0.09,7.15-5.3,7.9,0.13"/>
	<path class="st6" d="M15.3,11.14c-0.55,0.09-7.15-5.3-7.9,0.13"/>
	<path d="M25.55,30.01H7.25c-0.5,0-0.9-0.4-0.9-0.9V15.32c0-0.5,0.4-0.9,0.9-0.9h18.3c0.5,0,0.9,0.4,0.9,0.9v13.78
		C26.45,29.61,26.05,30.01,25.55,30.01z"/>
	<path d="M28.84,16.73H3.96c-0.33,0-0.59-0.26-0.59-0.59v-4.29c0-0.33,0.26-0.59,0.59-0.59h24.89c0.33,0,0.59,0.26,0.59,0.59v4.29
		C29.43,16.46,29.17,16.73,28.84,16.73z"/>
	<line class="st6" x1="6.35" y1="17.08" x2="26.45" y2="17.08"/>
	<line class="st6" x1="13.12" y1="11.6" x2="13.12" y2="16.73"/>
	<line class="st6" x1="19.63" y1="11.6" x2="19.63" y2="17.08"/>
	<line class="st6" x1="13.97" y1="17.33" x2="13.97" y2="30.01"/>
	<line class="st6" x1="18.73" y1="17.33" x2="18.73" y2="30.01"/>
</g>
</svg>
