<?xml version="1.0" encoding="utf-8"?>
<!-- Generator: Adobe Illustrator 24.1.1, SVG Export Plug-In . SVG Version: 6.00 Build 0)  -->
<svg version="1.1" xmlns="http://www.w3.org/2000/svg" xmlns:xlink="http://www.w3.org/1999/xlink" x="0px" y="0px"
	 viewBox="0 0 32 32" style="enable-background:new 0 0 32 32;" xml:space="preserve">
<style type="text/css">
	.st0{fill:none;stroke:#FFFFFF;stroke-width:0.5;stroke-linecap:round;stroke-linejoin:round;stroke-miterlimit:10;}
	.st1{fill:#FFFFFF;}
	.st2{fill:none;stroke:#000000;stroke-miterlimit:10;}
	.st3{fill:none;stroke:#000000;stroke-linecap:round;stroke-miterlimit:10;}
	.st4{fill:none;stroke:#000000;stroke-width:2;stroke-linecap:round;stroke-miterlimit:10;}
	.st5{fill:none;stroke:#FFFFFF;stroke-width:0.75;stroke-miterlimit:10;}
	.st6{fill:none;stroke:#FFFFFF;stroke-width:0.75;stroke-linecap:round;stroke-miterlimit:10;}
	.st7{fill:none;stroke:#FFFFFF;stroke-linecap:round;stroke-miterlimit:10;}
	.st8{fill:none;stroke:#FFFFFF;stroke-width:0.75;stroke-linecap:round;stroke-miterlimit:10;stroke-dasharray:2;}
</style>
<g id="Layer_1">
	<path d="M28.84,30.34h-6.63c-0.81,0-1.47-0.66-1.47-1.47V10.21c0-0.81,0.66-1.47,1.47-1.47h5.94c0.81,0,1.47,0.66,1.47,1.47v19.35
		C29.62,29.99,29.27,30.34,28.84,30.34z"/>
	<path d="M22.05,30.34H6.81c-0.5,0-0.9-0.4-0.9-0.9V8.56c0-1.2,0.98-2.18,2.18-2.18h12.7c1.2,0,2.18,0.98,2.18,2.18v20.88
		C22.96,29.94,22.55,30.34,22.05,30.34z"/>
	<path d="M19.91,5.49H9.57c-0.46,0-0.83-0.37-0.83-0.83v-1.6c0-0.46,0.37-0.83,0.83-0.83h10.34c0.46,0,0.83,0.37,0.83,0.83v1.6
		C20.74,5.12,20.37,5.49,19.91,5.49z"/>
	<polyline class="st0" points="11.36,30.34 11.36,21.83 17.68,21.83 17.68,30.34 	"/>
	<line class="st0" x1="23.16" y1="8.65" x2="23.16" y2="30.43"/>
	<g>
		<rect x="9.26" y="9.2" class="st0" width="2.59" height="2.59"/>
		<rect x="9.26" y="14.95" class="st0" width="2.59" height="2.59"/>
	</g>
	<g>
		<rect x="16.81" y="9.2" class="st0" width="2.59" height="2.59"/>
		<rect x="16.81" y="14.95" class="st0" width="2.59" height="2.59"/>
	</g>
	<g>
		<rect x="25.18" y="12.07" class="st0" width="2.59" height="2.59"/>
		<rect x="25.18" y="17.82" class="st0" width="2.59" height="2.59"/>
		<rect x="25.18" y="24.37" class="st0" width="2.59" height="2.59"/>
	</g>
</g>
<g id="Layer_2">
</g>
</svg>
