<?xml version="1.0" encoding="utf-8"?>
<!-- Generator: Adobe Illustrator 24.1.1, SVG Export Plug-In . SVG Version: 6.00 Build 0)  -->
<svg version="1.1" xmlns="http://www.w3.org/2000/svg" xmlns:xlink="http://www.w3.org/1999/xlink" x="0px" y="0px"
	 viewBox="0 0 32 32" style="enable-background:new 0 0 32 32;" xml:space="preserve">
<style type="text/css">
	.st0{fill:none;stroke:#FFFFFF;stroke-width:0.5;stroke-linecap:round;stroke-linejoin:round;stroke-miterlimit:10;}
	.st1{fill:#FFFFFF;}
	.st2{fill:none;stroke:#000000;stroke-miterlimit:10;}
	.st3{fill:none;stroke:#000000;stroke-linecap:round;stroke-miterlimit:10;}
	.st4{fill:none;stroke:#000000;stroke-width:2;stroke-linecap:round;stroke-miterlimit:10;}
	.st5{fill:none;stroke:#FFFFFF;stroke-width:0.75;stroke-miterlimit:10;}
	.st6{fill:none;stroke:#FFFFFF;stroke-width:0.75;stroke-linecap:round;stroke-miterlimit:10;}
	.st7{fill:none;stroke:#FFFFFF;stroke-linecap:round;stroke-miterlimit:10;}
	.st8{fill:none;stroke:#FFFFFF;stroke-width:0.75;stroke-linecap:round;stroke-miterlimit:10;stroke-dasharray:2;}
</style>
<g id="Layer_1">
	<path d="M24.23,31.51H6.28c-1.36,0-2.47-1.1-2.47-2.47V3.98c0-1.36,1.1-2.47,2.47-2.47h17.96c1.36,0,2.47,1.1,2.47,2.47v25.06
		C26.7,30.41,25.6,31.51,24.23,31.51z"/>
	<g>
		<path class="st5" d="M3.81,3.98h8.13c1.43,0,2.6,1.16,2.6,2.6v0c0,1.43-1.16,2.6-2.6,2.6H3.81"/>
		<circle class="st5" cx="17.88" cy="6.46" r="1.45"/>
		<circle class="st5" cx="22.47" cy="6.46" r="1.45"/>
		<circle class="st5" cx="15.26" cy="19.8" r="8.43"/>
		<circle class="st5" cx="15.26" cy="19.5" r="6.11"/>
		<g>
			<path class="st6" d="M15.54,15.71c2.09,0,3.79,1.7,3.79,3.79"/>
			<path class="st6" d="M15.54,23.29c-2.09,0-3.79-1.7-3.79-3.79"/>
		</g>
		<line class="st6" x1="24.98" y1="9.17" x2="26.7" y2="9.17"/>
	</g>
</g>
<g id="Layer_2">
</g>
</svg>
