<?xml version="1.0" encoding="utf-8"?>
<!-- Generator: Adobe Illustrator 24.1.1, SVG Export Plug-In . SVG Version: 6.00 Build 0)  -->
<svg version="1.1" xmlns="http://www.w3.org/2000/svg" xmlns:xlink="http://www.w3.org/1999/xlink" x="0px" y="0px"
	 viewBox="0 0 32 32" style="enable-background:new 0 0 32 32;" xml:space="preserve">
<style type="text/css">
	.st0{fill:none;stroke:#FFFFFF;stroke-width:0.5;stroke-linecap:round;stroke-linejoin:round;stroke-miterlimit:10;}
	.st1{fill:#FFFFFF;}
	.st2{fill:none;stroke:#000000;stroke-miterlimit:10;}
	.st3{fill:none;stroke:#000000;stroke-linecap:round;stroke-miterlimit:10;}
	.st4{fill:none;stroke:#000000;stroke-width:2;stroke-linecap:round;stroke-miterlimit:10;}
	.st5{fill:none;stroke:#FFFFFF;stroke-width:0.75;stroke-miterlimit:10;}
	.st6{fill:none;stroke:#FFFFFF;stroke-width:0.75;stroke-linecap:round;stroke-miterlimit:10;}
	.st7{fill:none;stroke:#FFFFFF;stroke-linecap:round;stroke-miterlimit:10;}
	.st8{fill:none;stroke:#FFFFFF;stroke-width:0.75;stroke-linecap:round;stroke-miterlimit:10;stroke-dasharray:2;}
</style>
<g id="Layer_1">
</g>
<g id="Layer_2">
	<path d="M28.84,30.62H3.16c-0.78,0-1.4-0.63-1.4-1.4V14.63c0-0.78,0.63-1.4,1.4-1.4H14.8c0.37,0,0.73-0.15,0.99-0.41l1.43-1.43
		c0.26-0.26,0.62-0.41,0.99-0.41h10.63c0.78,0,1.4,0.63,1.4,1.4v16.84C30.25,29.99,29.62,30.62,28.84,30.62z"/>
	<rect x="8.03" y="5.6" width="18.37" height="16.55"/>
	<polygon points="7.47,16.2 7.47,5.07 23.87,5.07 23.87,3.17 5.5,3.17 5.5,19.72 23.87,19.72 23.87,16.2 	"/>
	<polygon points="4.74,14.68 4.74,2.54 21.14,2.54 21.14,1.65 2.77,1.65 2.77,18.2 21.14,18.2 21.14,14.68 	"/>
	<path class="st6" d="M28.84,30.62H3.16c-0.78,0-1.4-0.63-1.4-1.4V14.63c0-0.78,0.63-1.4,1.4-1.4H14.8c0.37,0,0.73-0.15,0.99-0.41
		l1.43-1.43c0.26-0.26,0.62-0.41,0.99-0.41h10.63c0.78,0,1.4,0.63,1.4,1.4v16.84C30.25,29.99,29.62,30.62,28.84,30.62z"/>
</g>
</svg>
