<?xml version="1.0" encoding="utf-8"?>
<!-- Generator: Adobe Illustrator 24.1.1, SVG Export Plug-In . SVG Version: 6.00 Build 0)  -->
<svg version="1.1" xmlns="http://www.w3.org/2000/svg" xmlns:xlink="http://www.w3.org/1999/xlink" x="0px" y="0px"
	 viewBox="0 0 32 32" style="enable-background:new 0 0 32 32;" xml:space="preserve">
<style type="text/css">
	.st0{fill:none;stroke:#FFFFFF;stroke-width:0.5;stroke-linecap:round;stroke-linejoin:round;stroke-miterlimit:10;}
	.st1{fill:#FFFFFF;}
	.st2{fill:none;stroke:#000000;stroke-miterlimit:10;}
	.st3{fill:none;stroke:#000000;stroke-linecap:round;stroke-miterlimit:10;}
	.st4{fill:none;stroke:#000000;stroke-width:2;stroke-linecap:round;stroke-miterlimit:10;}
	.st5{fill:none;stroke:#FFFFFF;stroke-width:0.75;stroke-miterlimit:10;}
	.st6{fill:none;stroke:#FFFFFF;stroke-width:0.75;stroke-linecap:round;stroke-miterlimit:10;}
	.st7{fill:none;stroke:#FFFFFF;stroke-linecap:round;stroke-miterlimit:10;}
	.st8{fill:none;stroke:#FFFFFF;stroke-width:0.75;stroke-linecap:round;stroke-miterlimit:10;stroke-dasharray:2;}
</style>
<g id="Layer_1">
</g>
<g id="Layer_2">
	<path d="M22.83,30.63H8.28c-0.82,0-1.49-0.67-1.49-1.49V3.94c0-0.82,0.67-1.49,1.49-1.49h14.55c0.82,0,1.49,0.67,1.49,1.49v25.2
		C24.32,29.96,23.65,30.63,22.83,30.63z"/>
	<path class="st5" d="M21.85,25.94H9.26c-0.19,0-0.34-0.15-0.34-0.34V5.77c0-0.19,0.15-0.34,0.34-0.34h12.6
		c0.19,0,0.34,0.15,0.34,0.34V25.6C22.19,25.78,22.04,25.94,21.85,25.94z"/>
	<line class="st6" x1="18.06" y1="3.55" x2="18.66" y2="3.55"/>
	<line class="st6" x1="13.85" y1="3.55" x2="16.74" y2="3.55"/>
	<circle class="st6" cx="15.55" cy="28.6" r="1.09"/>
</g>
</svg>
