<?xml version="1.0" encoding="utf-8"?>
<!-- Generator: Adobe Illustrator 24.1.1, SVG Export Plug-In . SVG Version: 6.00 Build 0)  -->
<svg version="1.1" xmlns="http://www.w3.org/2000/svg" xmlns:xlink="http://www.w3.org/1999/xlink" x="0px" y="0px"
	 viewBox="0 0 32 32" style="enable-background:new 0 0 32 32;" xml:space="preserve">
<style type="text/css">
	.st0{fill:none;stroke:#FFFFFF;stroke-width:0.5;stroke-linecap:round;stroke-linejoin:round;stroke-miterlimit:10;}
	.st1{fill:#FFFFFF;}
	.st2{fill:none;stroke:#000000;stroke-miterlimit:10;}
	.st3{fill:none;stroke:#000000;stroke-linecap:round;stroke-miterlimit:10;}
	.st4{fill:none;stroke:#000000;stroke-width:2;stroke-linecap:round;stroke-miterlimit:10;}
	.st5{fill:none;stroke:#FFFFFF;stroke-width:0.75;stroke-miterlimit:10;}
	.st6{fill:none;stroke:#FFFFFF;stroke-width:0.75;stroke-linecap:round;stroke-miterlimit:10;}
	.st7{font-family:'ArialRoundedMTBold';}
	.st8{font-size:5.1496px;}
	.st9{fill:none;stroke:#FFFFFF;stroke-linecap:round;stroke-miterlimit:10;}
	.st10{fill:none;stroke:#FFFFFF;stroke-width:0.75;stroke-linecap:round;stroke-miterlimit:10;stroke-dasharray:2;}
</style>
<g id="Layer_1">
</g>
<g id="Layer_2">
	<g>
		<path d="M31.57,16.76L14.99,31.43c-0.27,0.24-0.69,0.22-0.93-0.06l-7.19-8.12c-0.24-0.27-0.22-0.69,0.06-0.93L23.51,7.65
			c0.27-0.24,0.69-0.22,0.93,0.06l7.19,8.12C31.87,16.1,31.85,16.51,31.57,16.76z"/>
		<path class="st5" d="M27.86,17.32c-0.35-0.44-0.44-1.09,0.04-1.59c0.05-0.05,0.06-0.13,0.01-0.18l-3.67-4.15
			c-0.05-0.05-0.13-0.05-0.18-0.01c-0.54,0.4-1.15,0.25-1.55-0.13c-0.05-0.05-0.13-0.05-0.18-0.01L10.4,21.8
			c-0.05,0.05-0.06,0.12-0.02,0.18c0.33,0.44,0.4,1.07-0.06,1.56c-0.05,0.05-0.06,0.13-0.01,0.18l3.63,4.1
			c0.04,0.05,0.11,0.05,0.17,0.02c0.55-0.34,1.16-0.14,1.53,0.28c0.05,0.06,0.13,0.07,0.19,0.02L27.84,17.5
			C27.9,17.45,27.9,17.37,27.86,17.32z"/>
		<text transform="matrix(0.7489 -0.6626 0.6626 0.7489 19.3139 21.5706)" class="st1 st7 st8">$</text>
	</g>
	<g>
		<path d="M21.34,7.3L11.01,26.88c-0.17,0.32-0.57,0.44-0.89,0.27L0.53,22.1c-0.32-0.17-0.44-0.57-0.27-0.89L10.58,1.63
			c0.17-0.32,0.57-0.44,0.89-0.27l9.59,5.06C21.38,6.58,21.51,6.98,21.34,7.3z"/>
		<path class="st5" d="M18.06,9.14c-0.48-0.29-0.79-0.86-0.53-1.5c0.03-0.06,0.01-0.14-0.06-0.17l-4.9-2.58
			c-0.06-0.03-0.14-0.01-0.17,0.05c-0.36,0.57-0.99,0.64-1.5,0.43c-0.07-0.03-0.14-0.01-0.17,0.06L3.31,19.5
			c-0.03,0.06-0.01,0.14,0.05,0.18c0.46,0.3,0.75,0.86,0.49,1.48c-0.03,0.06-0.01,0.14,0.06,0.17l4.84,2.55
			c0.06,0.03,0.13,0.01,0.17-0.04c0.4-0.51,1.04-0.54,1.53-0.28c0.07,0.03,0.15,0.01,0.18-0.05l7.48-14.19
			C18.15,9.25,18.12,9.18,18.06,9.14z"/>
		<text transform="matrix(0.4665 -0.8845 0.8845 0.4665 11.569 16.1376)" class="st1 st7 st8">$</text>
	</g>
	<line class="st6" x1="20.73" y1="9.14" x2="10.71" y2="27.58"/>
</g>
</svg>
