<?xml version="1.0" encoding="utf-8"?>
<!-- Generator: Adobe Illustrator 24.1.1, SVG Export Plug-In . SVG Version: 6.00 Build 0)  -->
<svg version="1.1" xmlns="http://www.w3.org/2000/svg" xmlns:xlink="http://www.w3.org/1999/xlink" x="0px" y="0px"
	 viewBox="0 0 32 32" style="enable-background:new 0 0 32 32;" xml:space="preserve">
<style type="text/css">
	.st0{fill:none;stroke:#FFFFFF;stroke-width:0.5;stroke-linecap:round;stroke-linejoin:round;stroke-miterlimit:10;}
	.st1{fill:#FFFFFF;}
	.st2{fill:none;stroke:#000000;stroke-miterlimit:10;}
	.st3{fill:none;stroke:#000000;stroke-linecap:round;stroke-miterlimit:10;}
	.st4{fill:none;stroke:#000000;stroke-width:2;stroke-linecap:round;stroke-miterlimit:10;}
	.st5{fill:none;stroke:#FFFFFF;stroke-width:0.75;stroke-miterlimit:10;}
	.st6{fill:none;stroke:#FFFFFF;stroke-width:0.75;stroke-linecap:round;stroke-miterlimit:10;}
	.st7{fill:none;stroke:#FFFFFF;stroke-linecap:round;stroke-miterlimit:10;}
	.st8{fill:none;stroke:#FFFFFF;stroke-width:0.75;stroke-linecap:round;stroke-miterlimit:10;stroke-dasharray:2;}
</style>
<g id="Layer_1">
</g>
<g id="Layer_2">
	<path d="M28.88,9.23c-0.99-0.58-1.71-1.56-1.34-2.52c0.04-0.1-0.02-0.22-0.14-0.29l-9.96-5.25c-0.13-0.07-0.26-0.04-0.32,0.05
		c-0.57,0.83-1.75,0.81-2.77,0.36c-0.13-0.06-0.27-0.04-0.32,0.05L2.97,22.57c-0.05,0.09,0.01,0.22,0.14,0.29
		c0.95,0.58,1.63,1.55,1.27,2.49c-0.04,0.1,0.02,0.22,0.15,0.29l9.85,5.2c0.12,0.06,0.24,0.04,0.31-0.03
		c0.65-0.73,1.86-0.64,2.86-0.11c0.14,0.07,0.29,0.06,0.34-0.04L29.03,9.53C29.08,9.43,29.01,9.31,28.88,9.23z"/>
	<line class="st8" x1="13.24" y1="5.6" x2="26.4" y2="12.63"/>
	<path class="st6" d="M15.94,26.46L7.7,22.17c-0.29-0.15-0.4-0.5-0.25-0.79l5.43-10.41c0.15-0.29,0.5-0.4,0.79-0.25l8.24,4.29
		c0.29,0.15,0.4,0.5,0.25,0.79l-5.43,10.41C16.58,26.5,16.23,26.61,15.94,26.46z"/>
</g>
</svg>
