<?xml version="1.0" encoding="UTF-8"?>
<svg width="24px" height="24px" viewBox="0 0 24 24" version="1.1" xmlns="http://www.w3.org/2000/svg" xmlns:xlink="http://www.w3.org/1999/xlink">
    <!-- Generator: Sketch 59.1 (86144) - https://sketch.com -->
    <title>google</title>
    <desc>Created with Sketch.</desc>
    <g id="Web" stroke="none" stroke-width="1" fill="none" fill-rule="evenodd" opacity="0.5">
        <g id="9.10-Email-Notification---Activate-your-Expenso-Admin-Account-(CLA)" transform="translate(-859.000000, -875.000000)" fill="#000000" fill-rule="nonzero">
            <g id="Group-5" transform="translate(756.000000, 850.000000)">
                <g id="Group-4" transform="translate(39.000000, 25.000000)">
                    <g id="google" transform="translate(64.000000, 0.000000)">
                        <path d="M22.7772632,10.2403791 L3.38324211,0.257744076 C3.04888421,0.0857630332 2.67663158,0 2.30437895,0 C2.2968,0 2.28934737,0.000909952607 2.28189474,0.000909952607 C2.23187368,0.00136492891 2.18197895,0.00363981043 2.13221053,0.00716587678 C2.10972632,0.00875829384 2.08736842,0.0109194313 2.06488421,0.0131943128 C2.02597895,0.0170616114 1.9872,0.0219526066 1.94854737,0.0277535545 C1.93452632,0.0299146919 1.92037895,0.0305971564 1.90635789,0.032985782 L1.90711579,0.0338957346 C1.66547368,0.0740473934 1.42964211,0.1507109 1.21048421,0.265251185 C0.539242105,0.615924171 0.126063158,1.26187678 0.126063158,1.96060664 L0.126063158,21.925763 C0.126063158,22.6244929 0.539242105,23.2704455 1.21048421,23.6211185 C1.42951579,23.7356588 1.66534737,23.812436 1.90698947,23.8525877 L1.90635789,23.8533839 C1.91898947,23.855545 1.93174737,23.8562275 1.94425263,23.8580474 C1.98581053,23.8644171 2.02749474,23.8696493 2.06930526,23.8736303 C2.09027368,23.8756777 2.11111579,23.8777251 2.13208421,23.8792038 C2.18122105,23.8827299 2.23023158,23.8847773 2.27949474,23.885346 C2.28783158,23.8854597 2.29604211,23.8863697 2.30437895,23.8863697 C2.67663158,23.8863697 3.04888421,23.8006066 3.38324211,23.6286256 L22.7772632,13.6458768 C23.4553263,13.2967962 23.8738105,12.647545 23.8738105,11.9440379 C23.8738105,11.9440379 23.8738105,11.9436967 23.8738105,11.9435829 C23.8738105,11.9435829 23.8738105,11.9432417 23.8738105,11.943128 C23.8738105,11.943128 23.8738105,11.9427867 23.8738105,11.942673 C23.8738105,11.942673 23.8738105,11.9423318 23.8738105,11.942218 C23.8738105,11.2388246 23.4553263,10.5895735 22.7772632,10.2403791 Z M15.1076211,8.25793365 L13.1792842,10.5358863 L8.27317895,4.73994313 L15.1076211,8.25793365 Z M21.8369684,12.1645877 L8.27317895,19.1463128 L16.7658947,9.11340284 L21.8368421,11.7234882 C21.9246316,11.7686445 21.9792,11.8532701 21.9792,11.9439242 C21.9792,12.0349194 21.9245053,12.119545 21.8369684,12.1645877 Z" id="Shape"></path>
                    </g>
                </g>
            </g>
        </g>
    </g>
</svg>