<?xml version="1.0" encoding="utf-8"?>
<!-- Generator: Adobe Illustrator 24.1.1, SVG Export Plug-In . SVG Version: 6.00 Build 0)  -->
<svg version="1.1" xmlns="http://www.w3.org/2000/svg" xmlns:xlink="http://www.w3.org/1999/xlink" x="0px" y="0px"
	 viewBox="0 0 32 32" style="enable-background:new 0 0 32 32;" xml:space="preserve">
<style type="text/css">
	.st0{fill:none;stroke:#FFFFFF;stroke-width:0.5;stroke-linecap:round;stroke-linejoin:round;stroke-miterlimit:10;}
	.st1{fill:#FFFFFF;}
	.st2{fill:none;stroke:#000000;stroke-miterlimit:10;}
	.st3{fill:none;stroke:#000000;stroke-linecap:round;stroke-miterlimit:10;}
	.st4{fill:none;stroke:#000000;stroke-width:2;stroke-linecap:round;stroke-miterlimit:10;}
	.st5{fill:none;stroke:#FFFFFF;stroke-width:0.75;stroke-miterlimit:10;}
	.st6{fill:none;stroke:#FFFFFF;stroke-width:0.75;stroke-linecap:round;stroke-miterlimit:10;}
	.st7{fill:none;stroke:#FFFFFF;stroke-linecap:round;stroke-miterlimit:10;}
	.st8{fill:none;stroke:#FFFFFF;stroke-width:0.75;stroke-linecap:round;stroke-miterlimit:10;stroke-dasharray:2;}
</style>
<g id="Layer_1">
	<g>
		<path d="M26.52,27.61H5.21c-0.8,0-1.46-0.65-1.46-1.46V4.84c0-0.8,0.65-1.46,1.46-1.46l8.67-2.03C15.46,0.98,17.11,1,18.69,1.4
			l7.83,1.99c0.8,0,1.46,0.65,1.46,1.46v21.31C27.98,26.96,27.33,27.61,26.52,27.61z"/>
		<path class="st1" d="M26.87,21.01c0.04,0.33-0.04,0.69-0.13,1.05c-0.09,0.39-0.32,0.67-0.7,0.83c-0.46,0.2-0.94,0.31-1.43,0.39
			c-0.47,0.08-0.95,0.1-1.43,0.11c-0.45,0-0.89-0.03-1.33-0.14c-0.13-0.03-0.27-0.03-0.39-0.13c-0.16-0.15-0.24-0.42-0.19-0.64
			c0.1-0.39,0.34-0.68,0.62-0.95c0.34-0.33,0.75-0.56,1.16-0.8c0.31-0.18,0.62-0.36,0.92-0.55c0.46-0.28,0.92-0.56,1.42-0.75
			c0.17-0.06,0.36-0.11,0.54-0.14c0.25-0.04,0.6,0.12,0.72,0.4C26.83,20.1,26.89,20.52,26.87,21.01z"/>
		<path class="st1" d="M9.08,23.39c-0.41-0.02-0.78-0.01-1.14-0.07c-0.62-0.09-1.23-0.19-1.8-0.47c-0.32-0.16-0.53-0.39-0.63-0.74
			c-0.19-0.66-0.18-1.33-0.09-2c0.02-0.16,0.09-0.32,0.17-0.46c0.18-0.33,0.48-0.42,0.84-0.34c0.65,0.14,1.2,0.49,1.76,0.82
			c0.52,0.3,1.04,0.61,1.55,0.93c0.47,0.3,0.88,0.66,1.13,1.17c0.13,0.28,0.13,0.62-0.06,0.8c-0.14,0.13-0.32,0.19-0.5,0.22
			c-0.21,0.04-0.42,0.07-0.63,0.09C9.47,23.37,9.25,23.38,9.08,23.39z"/>
		<path d="M2.6,16.28H1.38c-0.33,0-0.61-0.27-0.61-0.61v-3c0-0.33,0.27-0.61,0.61-0.61H2.6c0.33,0,0.61,0.27,0.61,0.61v3
			C3.2,16.01,2.93,16.28,2.6,16.28z"/>
		<path d="M30.26,16.28h-1.21c-0.33,0-0.61-0.27-0.61-0.61v-3c0-0.33,0.27-0.61,0.61-0.61h1.21c0.33,0,0.61,0.27,0.61,0.61v3
			C30.87,16.01,30.6,16.28,30.26,16.28z"/>
		<path d="M10.01,30.87H7.55c-0.33,0-0.61-0.27-0.61-0.61v-3.81c0-0.33,0.27-0.61,0.61-0.61h2.46c0.33,0,0.61,0.27,0.61,0.61v3.81
			C10.62,30.6,10.35,30.87,10.01,30.87z"/>
		<path d="M24.32,30.87h-2.46c-0.33,0-0.61-0.27-0.61-0.61v-3.81c0-0.33,0.27-0.61,0.61-0.61h2.46c0.33,0,0.61,0.27,0.61,0.61v3.81
			C24.93,30.6,24.66,30.87,24.32,30.87z"/>
		<line class="st0" x1="10.96" y1="4.66" x2="20.5" y2="4.66"/>
		<line class="st0" x1="13.48" y1="25.47" x2="19.09" y2="25.47"/>
		<path class="st1" d="M5.4,14.15L5.36,7.82c0-0.54,0.44-0.98,0.98-0.98L25.22,7c0.53,0,0.96,0.43,0.96,0.96l0.1,6.08
			c0.02,1.23-0.74,2.33-1.9,2.74l-7.7,2.73c-0.62,0.22-1.3,0.22-1.92,0l-7.49-2.69C6.16,16.41,5.4,15.34,5.4,14.15z"/>
	</g>
</g>
<g id="Layer_2">
</g>
</svg>
