<?xml version="1.0" encoding="utf-8"?>
<!-- Generator: Adobe Illustrator 24.1.1, SVG Export Plug-In . SVG Version: 6.00 Build 0)  -->
<svg version="1.1" xmlns="http://www.w3.org/2000/svg" xmlns:xlink="http://www.w3.org/1999/xlink" x="0px" y="0px"
	 viewBox="0 0 32 32" style="enable-background:new 0 0 32 32;" xml:space="preserve">
<style type="text/css">
	.st0{fill:none;stroke:#FFFFFF;stroke-width:0.5;stroke-linecap:round;stroke-linejoin:round;stroke-miterlimit:10;}
	.st1{fill:#FFFFFF;}
	.st2{fill:none;stroke:#000000;stroke-miterlimit:10;}
	.st3{fill:none;stroke:#000000;stroke-linecap:round;stroke-miterlimit:10;}
	.st4{fill:none;stroke:#000000;stroke-width:2;stroke-linecap:round;stroke-miterlimit:10;}
	.st5{fill:none;stroke:#FFFFFF;stroke-width:0.75;stroke-miterlimit:10;}
	.st6{fill:none;stroke:#FFFFFF;stroke-width:0.75;stroke-linecap:round;stroke-miterlimit:10;}
	.st7{fill:none;stroke:#FFFFFF;stroke-linecap:round;stroke-miterlimit:10;}
	.st8{fill:none;stroke:#FFFFFF;stroke-width:0.75;stroke-linecap:round;stroke-miterlimit:10;stroke-dasharray:2;}
</style>
<g id="Layer_1">
	<path d="M28.91,16.32c0.96-0.02,1.69-0.78,1.65-1.7c-0.02-0.56-0.37-0.9-0.93-0.91c-0.8,0-1.6,0-2.4,0c-0.43,0-0.75,0.25-0.89,0.65
		c-0.02,0.05-0.04,0.1-0.07,0.17c-0.39-1.02-0.76-2.01-1.14-3c-0.48-1.29-1.44-1.95-2.82-1.95c-4.21,0-8.41,0-12.62,0
		c-1.38,0-2.33,0.67-2.82,1.96c-0.37,0.99-0.75,1.98-1.14,3c-0.04-0.1-0.05-0.17-0.08-0.23c-0.16-0.37-0.43-0.59-0.84-0.6
		c-0.83-0.01-1.65-0.01-2.48,0c-0.5,0.01-0.89,0.41-0.9,0.9c-0.01,0.39,0.11,0.73,0.34,1.04c0.34,0.45,0.81,0.66,1.37,0.66
		c0.55,0.01,1.11,0,1.66,0c0.01,0.02,0.01,0.04,0.02,0.06c-0.66,0.56-1.32,1.12-1.99,1.67c-0.51,0.42-0.82,0.96-0.9,1.61
		c-0.04,0.32-0.03,0.65-0.03,0.97c0,1.61,0,3.23,0,4.84h0.02v-0.05H30.1c0-1.78,0-3.55,0-5.33c0-0.19-0.01-0.39-0.05-0.58
		c-0.13-0.71-0.58-1.22-1.1-1.66c-0.45-0.38-0.92-0.74-1.37-1.12c-0.14-0.11-0.27-0.24-0.45-0.41c0.16,0,0.25,0,0.33,0
		C27.94,16.32,28.42,16.33,28.91,16.32z M7.23,14.57c0.32-0.85,0.65-1.71,0.97-2.56C8.46,11.31,8.91,11,9.66,11
		c4.23,0,8.46,0,12.69,0c0.73,0,1.19,0.31,1.45,0.99c0.53,1.38,1.05,2.76,1.58,4.14c0.02,0.05,0.03,0.1,0.05,0.17H6.57
		C6.79,15.71,7.01,15.14,7.23,14.57z M6.11,22.22c-0.88,0-1.58-0.71-1.57-1.6c0-0.88,0.71-1.58,1.6-1.57c0.88,0,1.58,0.71,1.58,1.59
		C7.7,21.52,6.99,22.22,6.11,22.22z M27.47,20.62c0,0.88-0.7,1.59-1.58,1.6c-0.88,0-1.59-0.7-1.6-1.58c0-0.89,0.7-1.59,1.58-1.59
		C26.77,19.04,27.47,19.74,27.47,20.62z"/>
	<path d="M6.43,28.36H3.97c-0.33,0-0.61-0.27-0.61-0.61v-3.81c0-0.33,0.27-0.61,0.61-0.61h2.46c0.33,0,0.61,0.27,0.61,0.61v3.81
		C7.04,28.09,6.77,28.36,6.43,28.36z"/>
	<path d="M28.24,28.36h-2.46c-0.33,0-0.61-0.27-0.61-0.61v-3.81c0-0.33,0.27-0.61,0.61-0.61h2.46c0.33,0,0.61,0.27,0.61,0.61v3.81
		C28.84,28.09,28.57,28.36,28.24,28.36z"/>
	<line class="st0" x1="11.55" y1="23.39" x2="21.09" y2="23.39"/>
</g>
<g id="Layer_2">
</g>
</svg>
