<?xml version="1.0" encoding="utf-8"?>
<!-- Generator: Adobe Illustrator 24.1.1, SVG Export Plug-In . SVG Version: 6.00 Build 0)  -->
<svg version="1.1" xmlns="http://www.w3.org/2000/svg" xmlns:xlink="http://www.w3.org/1999/xlink" x="0px" y="0px"
	 viewBox="0 0 32 32" style="enable-background:new 0 0 32 32;" xml:space="preserve">
<style type="text/css">
	.st0{fill:none;stroke:#FFFFFF;stroke-width:0.5;stroke-linecap:round;stroke-linejoin:round;stroke-miterlimit:10;}
	.st1{fill:#FFFFFF;}
	.st2{fill:none;stroke:#000000;stroke-miterlimit:10;}
	.st3{fill:none;stroke:#000000;stroke-linecap:round;stroke-miterlimit:10;}
	.st4{fill:none;stroke:#000000;stroke-width:2;stroke-linecap:round;stroke-miterlimit:10;}
	.st5{fill:none;stroke:#FFFFFF;stroke-width:0.75;stroke-miterlimit:10;}
	.st6{fill:none;stroke:#FFFFFF;stroke-width:0.75;stroke-linecap:round;stroke-miterlimit:10;}
	.st7{fill:none;stroke:#FFFFFF;stroke-linecap:round;stroke-miterlimit:10;}
	.st8{fill:none;stroke:#FFFFFF;stroke-width:0.75;stroke-linecap:round;stroke-miterlimit:10;stroke-dasharray:2;}
</style>
<g id="Layer_1">
	<path d="M30.63,12.1H18.41l2.03,16.27c0.05,0.41,0.36,0.72,0.73,0.72h6.71c0.37,0,0.68-0.31,0.73-0.72L30.63,12.1z"/>
	<path d="M29.36,9.57h-9.69c-0.14,0-0.26,0.11-0.28,0.26l-0.44,2.46h11.15l-0.44-2.46C29.62,9.68,29.5,9.57,29.36,9.57z"/>
	<path d="M31,13.66H18.04c-0.24,0-0.43-0.22-0.43-0.49v-1.29c0-0.27,0.19-0.49,0.43-0.49H31c0.24,0,0.43,0.22,0.43,0.49v1.29
		C31.43,13.44,31.23,13.66,31,13.66z"/>
	<path d="M19.8,26.34l-1.27-10.21c-0.03-0.24,0.13-0.45,0.34-0.45h11.3c0.21,0,0.37,0.21,0.34,0.45l-1.27,10.21
		c-0.02,0.19-0.17,0.34-0.34,0.34h-8.75C19.97,26.68,19.83,26.54,19.8,26.34z"/>
	<g>
		<path d="M10.56,28h-1.8c-3.11,0-5.63-2.52-5.63-5.63v-2.24h13.06v2.24C16.18,25.48,13.67,28,10.56,28z"/>
		<path class="st2" d="M16.75,24.31h-1.81v-3.19h1.81c0.76,0,1.37,0.61,1.37,1.37v0.44C18.13,23.69,17.51,24.31,16.75,24.31z"/>
		<ellipse cx="10.17" cy="28" rx="8.11" ry="1.54"/>
		<path class="st0" d="M14.57,26.66c-0.92,0.86-2.22,1.4-3.65,1.4H8.47c-1.39,0-2.65-0.5-3.57-1.32"/>
	</g>
	<line class="st0" x1="19.02" y1="11.21" x2="30.01" y2="11.21"/>
	<line class="st0" x1="18.52" y1="13.94" x2="30.4" y2="13.94"/>
	<line class="st0" x1="18.52" y1="15.69" x2="30.4" y2="15.69"/>
	<line class="st0" x1="20.26" y1="26.91" x2="28.78" y2="26.91"/>
</g>
<g id="Layer_2">
</g>
</svg>
