<?xml version="1.0" encoding="utf-8"?>
<!-- Generator: Adobe Illustrator 24.1.1, SVG Export Plug-In . SVG Version: 6.00 Build 0)  -->
<svg version="1.1" xmlns="http://www.w3.org/2000/svg" xmlns:xlink="http://www.w3.org/1999/xlink" x="0px" y="0px"
	 viewBox="0 0 32 32" style="enable-background:new 0 0 32 32;" xml:space="preserve">
<style type="text/css">
	.st0{fill:none;stroke:#FFFFFF;stroke-width:0.5;stroke-linecap:round;stroke-linejoin:round;stroke-miterlimit:10;}
	.st1{fill:#FFFFFF;}
	.st2{fill:none;stroke:#000000;stroke-miterlimit:10;}
	.st3{fill:none;stroke:#000000;stroke-linecap:round;stroke-miterlimit:10;}
	.st4{fill:none;stroke:#000000;stroke-width:2;stroke-linecap:round;stroke-miterlimit:10;}
	.st5{fill:none;stroke:#FFFFFF;stroke-width:0.75;stroke-miterlimit:10;}
	.st6{fill:none;stroke:#FFFFFF;stroke-width:0.75;stroke-linecap:round;stroke-miterlimit:10;}
	.st7{fill:none;stroke:#FFFFFF;stroke-linecap:round;stroke-miterlimit:10;}
	.st8{fill:none;stroke:#FFFFFF;stroke-width:0.75;stroke-linecap:round;stroke-miterlimit:10;stroke-dasharray:2;}
</style>
<g id="Layer_1">
	<g>
		<path d="M14.8,20.07c0.59-0.26,1.17-0.55,1.88-0.89c-0.39,3.77-0.76,7.37-1.15,11.13l2.87-1.48c0,0,0.3-0.68,0.51-1.29
			c1.24-3.59,2.54-7.17,3.85-10.74c0.14-0.37,0.51-0.74,0.86-0.92c1.68-0.86,3.41-1.62,5.09-2.48c0.56-0.28,1.1-0.68,1.52-1.13
			c1.13-1.23,0.73-2.42-0.9-2.82c-1.5-0.36-2.95-0.2-4.35,0.47C19.5,12.55,14,15.19,8.5,17.8c-0.32,0.15-0.77,0.18-1.11,0.08
			c-1.23-0.35-2.44-0.73-3.64-1.18c-0.89-0.34-1.73-0.51-2.64,0.33c1.43,1.46,3.09,2.67,4.59,4.06c0.33,0.31,2.34,1.98,2.34,1.98
			L14.8,20.07z"/>
		<path d="M3.92,10.18c1.42-0.79,2.53-1.65,4.15-0.96c1.74,0.74,7.72,3,9.69,3.67c-1.61,0.76-3.07,1.45-4.54,2.12
			c-0.12,0.05-0.33,0.03-0.44-0.04C11.26,14.01,5.61,11.27,3.92,10.18z"/>
	</g>
	<line class="st0" x1="30.88" y1="10.86" x2="15.04" y2="18.62"/>
</g>
<g id="Layer_2">
</g>
</svg>
