<?xml version="1.0" encoding="utf-8"?>
<!-- Generator: Adobe Illustrator 24.1.1, SVG Export Plug-In . SVG Version: 6.00 Build 0)  -->
<svg version="1.1" xmlns="http://www.w3.org/2000/svg" xmlns:xlink="http://www.w3.org/1999/xlink" x="0px" y="0px"
	 viewBox="0 0 32 32" style="enable-background:new 0 0 32 32;" xml:space="preserve">
<style type="text/css">
	.st0{fill:none;stroke:#FFFFFF;stroke-width:0.5;stroke-linecap:round;stroke-linejoin:round;stroke-miterlimit:10;}
	.st1{fill:#FFFFFF;}
	.st2{fill:none;stroke:#000000;stroke-miterlimit:10;}
	.st3{fill:none;stroke:#000000;stroke-linecap:round;stroke-miterlimit:10;}
	.st4{fill:none;stroke:#000000;stroke-width:2;stroke-linecap:round;stroke-miterlimit:10;}
	.st5{fill:none;stroke:#FFFFFF;stroke-width:0.75;stroke-miterlimit:10;}
	.st6{fill:none;stroke:#FFFFFF;stroke-width:0.75;stroke-linecap:round;stroke-miterlimit:10;}
	.st7{fill:none;stroke:#FFFFFF;stroke-linecap:round;stroke-miterlimit:10;}
	.st8{fill:none;stroke:#FFFFFF;stroke-width:0.75;stroke-linecap:round;stroke-miterlimit:10;stroke-dasharray:2;}
</style>
<g id="Layer_1">
	<path d="M22.28,29.5H5.02V6.54c0-1.67,1.35-3.02,3.02-3.02h11.22c1.67,0,3.02,1.35,3.02,3.02V29.5z"/>
	<line class="st4" x1="24.87" y1="5.8" x2="29.64" y2="10.65"/>
	<path d="M26.34,8.35v3.93c0,1.18,0.96,2.14,2.14,2.14h0c1.18,0,2.14-0.96,2.14-2.14v-1.43"/>
	<path class="st2" d="M21.91,16h0.82c0.68,0,1.22,0.55,1.22,1.22v8.88c0,1.25,1.01,2.26,2.26,2.26h0c1.25,0,2.26-1.01,2.26-2.26
		V14.41"/>
	<rect x="7.71" y="6.46" class="st0" width="11.87" height="8.76"/>
</g>
<g id="Layer_2">
</g>
</svg>
