<?xml version="1.0" encoding="utf-8"?>
<!-- Generator: Adobe Illustrator 24.1.1, SVG Export Plug-In . SVG Version: 6.00 Build 0)  -->
<svg version="1.1" xmlns="http://www.w3.org/2000/svg" xmlns:xlink="http://www.w3.org/1999/xlink" x="0px" y="0px"
	 viewBox="0 0 32 32" style="enable-background:new 0 0 32 32;" xml:space="preserve">
<style type="text/css">
	.st0{fill:none;stroke:#FFFFFF;stroke-width:0.5;stroke-linecap:round;stroke-linejoin:round;stroke-miterlimit:10;}
	.st1{fill:#FFFFFF;}
	.st2{fill:none;stroke:#000000;stroke-miterlimit:10;}
	.st3{fill:none;stroke:#000000;stroke-linecap:round;stroke-miterlimit:10;}
	.st4{fill:none;stroke:#000000;stroke-width:2;stroke-linecap:round;stroke-miterlimit:10;}
	.st5{fill:none;stroke:#FFFFFF;stroke-width:0.75;stroke-miterlimit:10;}
	.st6{fill:none;stroke:#FFFFFF;stroke-width:0.75;stroke-linecap:round;stroke-miterlimit:10;}
	.st7{fill:none;stroke:#FFFFFF;stroke-linecap:round;stroke-miterlimit:10;}
	.st8{fill:none;stroke:#FFFFFF;stroke-width:0.75;stroke-linecap:round;stroke-miterlimit:10;stroke-dasharray:2;}
</style>
<g id="Layer_1">
	<path d="M11.69,9.35c0-0.12-1.07-1.31,0.27-2.16c0,0-1.11-2.72,1.65-2.67c0,0-0.49-2.13,1.56-2.13c0.22,0,0.53-1.74,2.14-0.85
		c0,0,1.42-0.76,1.6,0.98c0,0,1.91-0.44,1.96,1.69c0,0,2.4-0.44,1.91,2.58l-3.71,4.19L11.69,9.35z"/>
	<path d="M17.81,13.11c-0.06-0.33,3.32-13.43,7.15-11.83s-0.97,13.73-0.97,13.73H18.5L17.81,13.11z"/>
	<path class="st0" d="M23.99,15.01H18.5l-0.69-1.9c-0.04-0.21,1.42-6.13,3.36-9.6"/>
	<path d="M20.81,30.99H7.36c-0.73,0-1.32-0.59-1.32-1.32V10.2h16.09v19.47C22.13,30.4,21.54,30.99,20.81,30.99z"/>
	<path d="M24.64,30.99H11.19c-0.73,0-1.32-0.59-1.32-1.32V10.2h16.09v19.47C25.96,30.4,25.37,30.99,24.64,30.99z"/>
	<path class="st0" d="M22.13,10.2v19.47c0,0.73-0.59,1.32-1.32,1.32"/>
	<path d="M16.7,12.36c0.02-0.01-0.12-1.25-0.13-1.34c-0.07-0.9-0.17-1.82-0.46-2.68c-0.43-1.28-1.6-2.31-2.97-2.43
		c-0.73-0.07-1.43,0.14-2.03,0.54c-0.6,0.4-1.05,1.06-1.83,1.06c-1.07,0-3.78,0.63-2.64,4.09s5.35,3.84,5.35,3.84
		S16.7,12.37,16.7,12.36z"/>
	<path class="st0" d="M16.19,10.2c-0.07-0.92,0.03-1.08-0.26-1.95c-0.44-1.3-1.62-2.34-3.01-2.47c0,0-1.04-0.1-1.71,0.35"/>
	<path class="st3" d="M8.34,5.55c0,0,1.8,0.91,1.5,2.53"/>
	<line class="st0" x1="6.04" y1="10.2" x2="25.96" y2="10.2"/>
	<path class="st0" d="M21.47,4.98c0.13,0.06,0.57-0.96,2.17-0.38s1.66-0.77,1.66-0.77"/>
	<path class="st0" d="M20.81,8.08c0.13,0.06,0.57-0.96,2.17-0.38s1.66-0.77,1.66-0.77"/>
</g>
<g id="Layer_2">
</g>
</svg>
