<?xml version="1.0" encoding="utf-8"?>
<!-- Generator: Adobe Illustrator 24.1.1, SVG Export Plug-In . SVG Version: 6.00 Build 0)  -->
<svg version="1.1" xmlns="http://www.w3.org/2000/svg" xmlns:xlink="http://www.w3.org/1999/xlink" x="0px" y="0px"
	 viewBox="0 0 32 32" style="enable-background:new 0 0 32 32;" xml:space="preserve">
<style type="text/css">
	.st0{fill:none;stroke:#FFFFFF;stroke-width:0.5;stroke-linecap:round;stroke-linejoin:round;stroke-miterlimit:10;}
	.st1{fill:#FFFFFF;}
	.st2{fill:none;stroke:#000000;stroke-miterlimit:10;}
	.st3{fill:none;stroke:#000000;stroke-linecap:round;stroke-miterlimit:10;}
	.st4{fill:none;stroke:#000000;stroke-width:2;stroke-linecap:round;stroke-miterlimit:10;}
	.st5{fill:none;stroke:#FFFFFF;stroke-width:0.75;stroke-miterlimit:10;}
	.st6{fill:none;stroke:#FFFFFF;stroke-width:0.75;stroke-linecap:round;stroke-miterlimit:10;}
	.st7{fill:none;stroke:#FFFFFF;stroke-linecap:round;stroke-miterlimit:10;}
	.st8{fill:none;stroke:#FFFFFF;stroke-width:0.75;stroke-linecap:round;stroke-miterlimit:10;stroke-dasharray:2;}
	.st9{font-family:'ArialRoundedMTBold';}
	.st10{font-size:5.5717px;}
</style>
<g id="Layer_1">
</g>
<g id="Layer_2">
	<g>
		<path d="M22.82,6.55v22.53c0,0.56-0.45,1.01-1.01,1.01H3.19c-0.56,0-1.01-0.45-1.01-1.01V2.01c0-0.56,0.45-1.01,1.01-1.01h13.72
			c0.26,0,0.5,0.1,0.69,0.27l4.9,4.54C22.71,6,22.82,6.27,22.82,6.55z"/>
		<polyline class="st6" points="17.11,1.6 17.11,6.71 22.17,6.71 		"/>
		<line class="st6" x1="4" y1="12.53" x2="18.72" y2="12.53"/>
		<line class="st6" x1="4" y1="16.63" x2="10.02" y2="16.63"/>
		<line class="st6" x1="14.83" y1="20.73" x2="16.66" y2="20.73"/>
		<line class="st6" x1="4" y1="20.73" x2="12.2" y2="20.73"/>
		<line class="st6" x1="10.27" y1="24.83" x2="15.21" y2="24.83"/>
		<line class="st6" x1="4.25" y1="24.83" x2="8.4" y2="24.83"/>
	</g>
	<circle cx="25.28" cy="24.26" r="6.02"/>
	<circle class="st6" cx="25.28" cy="24.26" r="6.48"/>
	<text transform="matrix(1 0 0 1 23.7729 25.6655)" class="st1 st9 st10">$</text>
	<circle class="st5" cx="25.28" cy="24.26" r="4.62"/>
</g>
</svg>
