<?xml version="1.0" encoding="utf-8"?>
<!-- Generator: Adobe Illustrator 24.1.1, SVG Export Plug-In . SVG Version: 6.00 Build 0)  -->
<svg version="1.1" xmlns="http://www.w3.org/2000/svg" xmlns:xlink="http://www.w3.org/1999/xlink" x="0px" y="0px"
	 viewBox="0 0 32 32" style="enable-background:new 0 0 32 32;" xml:space="preserve">
<style type="text/css">
	.st0{fill:none;stroke:#FFFFFF;stroke-width:0.5;stroke-linecap:round;stroke-linejoin:round;stroke-miterlimit:10;}
	.st1{fill:#FFFFFF;}
	.st2{fill:none;stroke:#000000;stroke-miterlimit:10;}
	.st3{fill:none;stroke:#000000;stroke-linecap:round;stroke-miterlimit:10;}
	.st4{fill:none;stroke:#000000;stroke-width:2;stroke-linecap:round;stroke-miterlimit:10;}
	.st5{fill:none;stroke:#FFFFFF;stroke-width:0.75;stroke-miterlimit:10;}
	.st6{fill:none;stroke:#FFFFFF;stroke-width:0.75;stroke-linecap:round;stroke-miterlimit:10;}
	.st7{fill:none;stroke:#FFFFFF;stroke-linecap:round;stroke-miterlimit:10;}
	.st8{fill:none;stroke:#FFFFFF;stroke-width:0.75;stroke-linecap:round;stroke-miterlimit:10;stroke-dasharray:2;}
</style>
<g id="Layer_1">
</g>
<g id="Layer_2">
	<path d="M21.74,24.86H2.46c-0.39,0-0.7-0.31-0.7-0.7V7.15c0-0.39,0.31-0.7,0.7-0.7h19.29c0.39,0,0.7,0.31,0.7,0.7v17.01
		C22.44,24.54,22.13,24.86,21.74,24.86z"/>
	<path d="M30.51,24.86h-7.32c-0.3,0-0.54-0.24-0.54-0.54V13.32c0-0.3,0.24-0.54,0.54-0.54h3.8c0.29,0,0.54,0.23,0.54,0.53l0.11,4.14
		c0.01,0.24,0.17,0.44,0.39,0.51l2.62,0.75c0.23,0.07,0.39,0.28,0.39,0.52v5.09C31.05,24.61,30.81,24.86,30.51,24.86z"/>
	<line class="st6" x1="22.84" y1="11.15" x2="22.84" y2="24.86"/>
	<circle cx="27.35" cy="25.29" r="1.9"/>
	<circle cx="5.12" cy="25.29" r="1.9"/>
	<g>
		<path class="st6" d="M10.93,15.77c-0.82,0-1.48-0.66-1.48-1.48v-3.83c0-0.82,0.66-1.48,1.48-1.48h2.66c0.82,0,1.48,0.66,1.48,1.48
			v3.83c0,0.82-0.66,1.48-1.48,1.48"/>
		<path class="st6" d="M15.4,19.26H8.85v-1.22c0-0.55,0.44-0.99,0.99-0.99h4.57c0.55,0,0.99,0.44,0.99,0.99V19.26z"/>
		<line class="st6" x1="12.26" y1="14.17" x2="12.26" y2="17.05"/>
		<line class="st6" x1="12.38" y1="19.47" x2="12.38" y2="22.15"/>
		<polyline class="st6" points="12.64,20.81 14.94,21.56 14.94,22.32 		"/>
		<polyline class="st6" points="12.26,20.81 9.96,21.56 9.96,22.32 		"/>
	</g>
</g>
</svg>
