<?xml version="1.0" encoding="utf-8"?>
<!-- Generator: Adobe Illustrator 24.1.1, SVG Export Plug-In . SVG Version: 6.00 Build 0)  -->
<svg version="1.1" xmlns="http://www.w3.org/2000/svg" xmlns:xlink="http://www.w3.org/1999/xlink" x="0px" y="0px"
	 viewBox="0 0 32 32" style="enable-background:new 0 0 32 32;" xml:space="preserve">
<style type="text/css">
	.st0{fill:none;stroke:#FFFFFF;stroke-width:0.5;stroke-linecap:round;stroke-linejoin:round;stroke-miterlimit:10;}
	.st1{fill:#FFFFFF;}
	.st2{fill:none;stroke:#000000;stroke-miterlimit:10;}
	.st3{fill:none;stroke:#000000;stroke-linecap:round;stroke-miterlimit:10;}
	.st4{fill:none;stroke:#000000;stroke-width:2;stroke-linecap:round;stroke-miterlimit:10;}
	.st5{fill:none;stroke:#FFFFFF;stroke-width:0.75;stroke-miterlimit:10;}
	.st6{fill:none;stroke:#FFFFFF;stroke-width:0.75;stroke-linecap:round;stroke-miterlimit:10;}
	.st7{fill:none;stroke:#FFFFFF;stroke-linecap:round;stroke-miterlimit:10;}
	.st8{fill:none;stroke:#FFFFFF;stroke-width:0.75;stroke-linecap:round;stroke-miterlimit:10;stroke-dasharray:2;}
</style>
<g id="Layer_1">
</g>
<g id="Layer_2">
	<polygon points="21.49,30.25 10.26,30.25 8.38,15.52 23.16,15.52 	"/>
	<g>
		<path d="M14.45,7c0.26,0,0.51,0,0.77,0c0,2.65,0,5.3,0,7.96c-0.25,0-0.51,0-0.77,0C14.45,12.31,14.45,9.66,14.45,7z"/>
		<path d="M16.98,7c0.26,0,0.51,0,0.77,0c0,2.65,0,5.3,0,7.96c-0.26,0-0.51,0-0.77,0C16.98,12.31,16.98,9.67,16.98,7z"/>
		<path d="M16.42,14.97c-0.22,0-0.42,0-0.64,0c0-2.66,0-5.3,0-7.96c0.21,0,0.42,0,0.64,0C16.42,9.66,16.42,12.3,16.42,14.97z"/>
		<g>
			<path d="M0.44,8.41C0.47,8.27,0.5,8.14,0.54,8C0.8,7.19,1.53,6.61,2.38,6.55c1.12-0.08,2.09,0.69,2.25,1.8
				c0.17,1.19-0.68,2.25-1.82,2.39c-0.66,0.08-1.24-0.11-1.72-0.56C0.74,9.86,0.53,9.45,0.46,8.98c0-0.03-0.01-0.06-0.02-0.09
				C0.44,8.72,0.44,8.57,0.44,8.41z M4.17,8.64C4.16,7.74,3.43,7.02,2.53,7.03c-0.9,0.01-1.62,0.74-1.62,1.64
				c0.01,0.9,0.75,1.62,1.66,1.61C3.45,10.27,4.17,9.53,4.17,8.64z"/>
			<path d="M11,1.89c0.17,0.05,0.35,0.08,0.51,0.15c0.82,0.36,1.29,0.99,1.32,1.88c0.03,0.91-0.39,1.59-1.21,1.97
				c-1.31,0.62-2.77-0.24-2.97-1.59c-0.14-0.94,0.34-1.84,1.2-2.23c0.18-0.08,0.37-0.12,0.56-0.17c0.02-0.01,0.03-0.01,0.05-0.02
				C10.64,1.89,10.82,1.89,11,1.89z M10.73,5.61c0.93-0.01,1.64-0.73,1.63-1.65c-0.01-0.89-0.75-1.61-1.62-1.6
				C9.78,2.37,9.09,3.15,9.11,4C9.12,4.9,9.84,5.63,10.73,5.61z"/>
			<path d="M13.08,15.02c-0.04,0-0.07,0.01-0.11,0.01c-0.43,0-0.87,0-1.3,0c-0.07,0-0.12-0.02-0.17-0.07
				c-1.01-0.9-2.02-1.79-3.04-2.68c-0.45-0.4-0.91-0.8-1.36-1.2c-0.65-0.58-1.31-1.16-1.96-1.74C5.1,9.31,5.08,9.27,5.08,9.24
				C5.1,9.06,5.13,8.89,5.16,8.69c0.03,0.03,0.06,0.06,0.09,0.09c0.4,0.43,0.84,0.81,1.36,1.1c0.27,0.15,0.55,0.28,0.85,0.34
				c0.43,0.09,0.85,0.07,1.25-0.11c0.08-0.03,0.12-0.03,0.19,0.03c1.06,0.94,2.13,1.88,3.19,2.82c0.31,0.28,0.62,0.55,0.93,0.83
				c0.03,0.03,0.06,0.08,0.06,0.12c0,0.35,0,0.71,0,1.06C13.09,14.98,13.08,14.99,13.08,15.02z M9.99,11.62
				c-0.33,0-0.6,0.26-0.6,0.59c0,0.33,0.27,0.6,0.6,0.61c0.33,0,0.6-0.26,0.6-0.59C10.59,11.88,10.33,11.62,9.99,11.62z"/>
			<path d="M10.85,11.21c-0.55-0.49-1.11-0.98-1.67-1.47C9.2,9.71,9.21,9.69,9.22,9.68c0.33-0.41,0.46-0.89,0.49-1.41
				c0.04-0.66-0.07-1.29-0.25-1.92C9.45,6.33,9.44,6.3,9.43,6.25C9.48,6.28,9.52,6.3,9.56,6.31c0.11,0.05,0.22,0.09,0.33,0.13
				C9.95,6.47,9.99,6.5,10,6.58c0.13,0.69,0.26,1.39,0.39,2.08c0.15,0.82,0.31,1.63,0.46,2.45c0.01,0.03,0.01,0.06,0.01,0.08
				C10.86,11.2,10.86,11.2,10.85,11.21z"/>
			<path d="M10.78,15.01c-0.36,0-0.73,0-1.1,0c-0.07-0.39-0.15-0.77-0.22-1.16c0.01-0.01,0.02-0.01,0.02-0.02
				c0.44,0.39,0.87,0.77,1.31,1.16C10.79,15,10.79,15.01,10.78,15.01z"/>
			<path d="M10.09,12.21c0,0.06-0.04,0.1-0.1,0.1c-0.06,0-0.1-0.04-0.1-0.1c0-0.06,0.04-0.09,0.09-0.1
				C10.04,12.1,10.09,12.15,10.09,12.21z"/>
		</g>
		<path d="M14.45,6.63c0,0,3.32,0,3.3,0c-0.02,0-1.65-4.27-1.65-4.27L14.45,6.63z"/>
	</g>
	<g>
		<rect x="18.98" y="3.74" width="3.61" height="11.13"/>
		<line class="st6" x1="18.98" y1="5.66" x2="20.94" y2="5.66"/>
		<line class="st6" x1="18.98" y1="8.08" x2="20.94" y2="8.08"/>
		<line class="st6" x1="18.98" y1="10.5" x2="20.94" y2="10.5"/>
		<line class="st6" x1="18.98" y1="12.92" x2="20.94" y2="12.92"/>
	</g>
</g>
</svg>
