<?xml version="1.0" encoding="utf-8"?>
<!-- Generator: Adobe Illustrator 24.1.1, SVG Export Plug-In . SVG Version: 6.00 Build 0)  -->
<svg version="1.1" xmlns="http://www.w3.org/2000/svg" xmlns:xlink="http://www.w3.org/1999/xlink" x="0px" y="0px"
	 viewBox="0 0 32 32" style="enable-background:new 0 0 32 32;" xml:space="preserve">
<style type="text/css">
	.st0{fill:none;stroke:#FFFFFF;stroke-width:0.5;stroke-linecap:round;stroke-linejoin:round;stroke-miterlimit:10;}
	.st1{fill:#FFFFFF;}
	.st2{fill:none;stroke:#000000;stroke-miterlimit:10;}
	.st3{fill:none;stroke:#000000;stroke-linecap:round;stroke-miterlimit:10;}
	.st4{fill:none;stroke:#000000;stroke-width:2;stroke-linecap:round;stroke-miterlimit:10;}
	.st5{fill:none;stroke:#FFFFFF;stroke-width:0.75;stroke-miterlimit:10;}
	.st6{fill:none;stroke:#FFFFFF;stroke-width:0.75;stroke-linecap:round;stroke-miterlimit:10;}
	.st7{fill:none;stroke:#FFFFFF;stroke-linecap:round;stroke-miterlimit:10;}
	.st8{fill:none;stroke:#FFFFFF;stroke-width:0.75;stroke-linecap:round;stroke-miterlimit:10;stroke-dasharray:2;}
</style>
<g id="Layer_1">
</g>
<g id="Layer_2">
	<path d="M20.38,30.63H6.6c-0.81,0-1.47-0.66-1.47-1.47V5.86c0-0.81,0.66-1.47,1.47-1.47h13.79c0.81,0,1.47,0.66,1.47,1.47v23.3
		C21.85,29.97,21.19,30.63,20.38,30.63z"/>
	<path d="M26.77,27.63H12.98c-0.81,0-1.47-0.66-1.47-1.47V4.39V2.86c0-0.81,0.66-1.47,1.47-1.47h13.79c0.81,0,1.47,0.66,1.47,1.47
		v23.3C28.23,26.97,27.58,27.63,26.77,27.63z"/>
	<path class="st5" d="M10.81,4.02c0.2,0.05,7.06,0.02,9.77,0.01c0.7,0,1.27,0.56,1.28,1.27l0.24,24.39"/>
	<line class="st6" x1="7.55" y1="22.72" x2="18.91" y2="22.72"/>
	<line class="st6" x1="16.46" y1="25.6" x2="18.91" y2="25.6"/>
	<line class="st6" x1="7.55" y1="25.6" x2="14.51" y2="25.6"/>
	<path class="st1" d="M14.59,7.51c-0.01,0-0.03-0.01-0.04-0.01C12.17,6.96,9.7,7.93,8.33,9.95s-1.36,4.68,0.03,6.69
		s3.87,2.95,6.25,2.38c0.01,0,0.03-0.01,0.04-0.01c2.66-0.65,4.52-3.03,4.51-5.77C19.14,10.5,17.25,8.13,14.59,7.51z M17.18,10.31
		h-1.03c-0.4-0.7-0.95-1.31-1.59-1.79C15.6,8.81,16.52,9.44,17.18,10.31z M17.75,15.25c-0.02-0.01-0.05-0.01-0.07-0.01H16.6
		c0.17-0.48,0.27-0.97,0.31-1.48h1.23C18.1,14.27,17.96,14.78,17.75,15.25z M8.74,15.25c-0.21-0.47-0.34-0.98-0.39-1.49h1.48
		c0.04,0.5,0.15,1,0.31,1.48H8.81C8.79,15.24,8.76,15.25,8.74,15.25z M8.74,11.28c0.02,0.01,0.05,0.01,0.07,0.01h1.32
		c-0.17,0.48-0.27,0.97-0.31,1.48H8.34C8.39,12.26,8.53,11.75,8.74,11.28z M15.92,12.77h-2.18V11.3h1.81
		C15.75,11.77,15.87,12.26,15.92,12.77z M13.74,10.31V9.16c0.47,0.31,0.89,0.7,1.22,1.15H13.74z M12.75,9.34v0.97h-0.98
		C12.05,9.94,12.38,9.61,12.75,9.34z M12.75,11.3v1.48h-1.94c0.05-0.51,0.17-1.01,0.38-1.48H12.75z M10.81,13.76h1.94v1.48h-1.56
		C10.99,14.77,10.86,14.27,10.81,13.76z M12.75,16.22v0.98c-0.37-0.28-0.7-0.61-0.98-0.98H12.75z M13.74,17.37v-1.15h1.22
		C14.62,16.67,14.21,17.06,13.74,17.37z M13.74,15.24v-1.48h2.18c-0.05,0.51-0.17,1.01-0.38,1.48H13.74z M18.15,12.77h-1.23
		c-0.04-0.5-0.15-1-0.31-1.48h1.07c0.02,0,0.05-0.01,0.07-0.01C17.96,11.75,18.1,12.26,18.15,12.77z M12.14,8.47L12.14,8.47
		c0.03,0.01,0.05,0.01,0.08,0.02c-0.67,0.49-1.23,1.11-1.64,1.82H9.31C10.01,9.38,11.01,8.73,12.14,8.47z M9.31,16.22h1.27
		c0.41,0.72,0.97,1.34,1.64,1.82c-0.03,0.01-0.05,0.01-0.07,0.02l0,0C11.01,17.8,10.01,17.15,9.31,16.22z M14.55,18.01
		c0.65-0.48,1.19-1.09,1.6-1.79h1.03C16.52,17.09,15.6,17.72,14.55,18.01z"/>
	<line class="st6" x1="23.38" y1="19.69" x2="26.51" y2="19.69"/>
	<line class="st6" x1="23.38" y1="22.72" x2="24.95" y2="22.72"/>
</g>
</svg>
