<?xml version="1.0" encoding="UTF-8"?>
<svg width="24px" height="24px" viewBox="0 0 24 24" version="1.1" xmlns="http://www.w3.org/2000/svg" xmlns:xlink="http://www.w3.org/1999/xlink">
    <!-- Generator: Sketch 59.1 (86144) - https://sketch.com -->
    <title>Shape</title>
    <desc>Created with Sketch.</desc>
    <g id="Web" stroke="none" stroke-width="1" fill="none" fill-rule="evenodd" opacity="0.5">
        <g id="9.10-Email-Notification---Activate-your-Expenso-Admin-Account-(CLA)" transform="translate(-795.000000, -875.000000)" fill="#000000" fill-rule="nonzero">
            <g id="Group-5" transform="translate(756.000000, 850.000000)">
                <g id="Group-4" transform="translate(39.000000, 25.000000)">
                    <g id="app">
                        <path d="M19.078125,0 L4.921875,0 C2.20795312,0 0,2.20795312 0,4.921875 L0,19.078125 C0,21.7920469 2.20795312,24 4.921875,24 L19.078125,24 C21.7920469,24 24,21.7920469 24,19.078125 L24,4.921875 C24,2.20795312 21.7920469,0 19.078125,0 Z M7.38979688,18.4928906 C7.173,18.8684062 6.77826563,19.0785469 6.3729375,19.0785937 C6.17423437,19.0785937 5.97304687,19.0281094 5.78896875,18.9218438 C5.229375,18.5987813 5.03695312,17.8806563 5.36001562,17.3210625 L5.5905,16.921875 L8.29682812,16.921875 L7.38979688,18.4928906 Z M5.1796875,15.984375 C4.53351563,15.984375 4.0078125,15.4586719 4.0078125,14.8125 C4.0078125,14.1663281 4.53351563,13.640625 5.1796875,13.640625 L7.48490625,13.640625 L10.6468125,8.16403125 L9.78989063,6.67978125 C9.46682813,6.1201875 9.65920313,5.4020625 10.2187969,5.07895312 L10.2188438,5.07895312 C10.7784375,4.75589063 11.4965625,4.94835937 11.819625,5.50790625 L12,5.82032813 L12.180375,5.50795313 C12.5035781,4.9483125 13.2217031,4.7559375 13.7811563,5.079 C14.0522344,5.23551562 14.2461563,5.48821875 14.3271563,5.7905625 C14.4082031,6.09290625 14.3665781,6.40875 14.2100625,6.67982813 L10.1912344,13.640625 L12.7261875,13.640625 L14.079375,15.984375 L5.1796875,15.984375 Z M18.8203125,15.984375 L17.8682344,15.984375 L18.6399375,17.3210156 C18.9630469,17.8805625 18.770625,18.5986875 18.2110781,18.9217969 C18.0304688,19.0260469 17.8300312,19.0793437 17.6269687,19.0793437 C17.5251562,19.0793437 17.4227812,19.0659844 17.3217656,19.0388906 C17.019375,18.9578437 16.7666719,18.7639219 16.6101562,18.4927969 L12.5412188,11.4452344 L13.8943594,9.10148437 L16.5150937,13.640625 L18.8203125,13.640625 C19.4664844,13.640625 19.9921875,14.1663281 19.9921875,14.8125 C19.9921875,15.4586719 19.4664844,15.984375 18.8203125,15.984375 Z" id="Shape"></path>
                    </g>
                </g>
            </g>
        </g>
    </g>
</svg>