<?xml version="1.0" encoding="UTF-8"?>
<svg width="24px" height="24px" viewBox="0 0 24 24" version="1.1" xmlns="http://www.w3.org/2000/svg" xmlns:xlink="http://www.w3.org/1999/xlink">
    <!-- Generator: Sketch 59.1 (86144) - https://sketch.com -->
    <title>world-wide-web</title>
    <desc>Created with Sketch.</desc>
    <g id="Web" stroke="none" stroke-width="1" fill="none" fill-rule="evenodd" opacity="0.5">
        <g id="9.10-Email-Notification---Activate-your-Expenso-Admin-Account-(CLA)" transform="translate(-923.000000, -875.000000)" fill="#000000" fill-rule="nonzero">
            <g id="Group-5" transform="translate(756.000000, 850.000000)">
                <g id="Group-4" transform="translate(39.000000, 25.000000)">
                    <g id="world-wide-web" transform="translate(128.000000, 0.000000)">
                        <path d="M12,0 C5.37257143,0 0,5.37257143 0,12 C0,18.6274286 5.37257143,24 12,24 C18.6274286,24 24,18.6274286 24,12 C24,5.37257143 18.6274286,0 12,0 Z M1.53800816,12.7500245 L4.11149388,12.7500245 C4.16875102,13.9952327 4.35693061,15.134498 4.64919184,16.1576327 L2.36238367,16.1576327 C1.90447347,15.1003592 1.62357551,13.9522286 1.53800816,12.7500245 Z M15.7018776,11.2500245 C15.6454531,10.0444898 15.5025306,8.90257959 15.3090612,7.84241633 L17.7674449,7.84241633 C18.0946776,8.84865306 18.319298,9.98331429 18.3870367,11.2500245 L15.7018776,11.2500245 Z M10.1084082,16.1576327 C9.89671837,14.9888327 9.79283265,13.847951 9.77358367,12.7500245 L14.2264653,12.7500245 C14.2072653,13.847951 14.1033306,14.9888327 13.8915918,16.1576327 L10.1084082,16.1576327 Z M13.5648,17.6576327 C13.2131265,19.0076571 12.7040816,20.3838367 11.9998531,21.7630041 C11.2957224,20.3838367 10.7867755,19.0076571 10.435151,17.6576327 L13.5648,17.6576327 Z M9.79400816,11.2500245 C9.85342041,10.0375837 10.0067265,8.89508571 10.2102857,7.84241633 L13.7897143,7.84241633 C13.9933224,8.89508571 14.1465796,10.0375837 14.2060408,11.2500245 L9.79400816,11.2500245 Z M10.5473633,6.34246531 C11.016098,4.51263673 11.5952327,3.06891429 11.999902,2.18003265 C12.4046204,3.06891429 12.9838041,4.51263673 13.4526367,6.34246531 L10.5473633,6.34246531 Z M14.9911837,6.34246531 C14.5126531,4.35942857 13.8982041,2.76646531 13.4421061,1.73691429 C14.0089469,2.14026122 15.8921633,3.63110204 17.1768,6.34246531 L14.9911837,6.34246531 Z M10.557698,1.73681633 C10.1016,2.76636735 9.48724898,4.35937959 9.00876735,6.34246531 L6.82290612,6.34246531 C8.1076898,3.63085714 9.99105306,2.14001633 10.557698,1.73681633 Z M8.69093878,7.84246531 C8.49746939,8.90262857 8.35459592,10.0445388 8.29817143,11.2500735 L5.61271837,11.2500735 C5.68045714,9.98341224 5.90502857,8.84870204 6.2323102,7.84246531 L8.69093878,7.84246531 Z M4.1131102,11.2500245 L1.53800816,11.2500245 C1.62357551,10.0478204 1.90442449,8.89978776 2.36233469,7.84241633 L4.65957551,7.84241633 C4.36515918,8.86540408 4.17325714,10.0038857 4.1131102,11.2500245 Z M5.61193469,12.7500245 L8.2776,12.7500245 C8.2946449,13.8498122 8.38716735,14.9891755 8.58328163,16.1576327 L6.23309388,16.1576327 C5.90306939,15.1488 5.67771429,14.0137959 5.61193469,12.7500245 Z M8.8939102,17.6576327 C9.2618449,19.1849633 9.80835918,20.7459918 10.5956571,22.3132898 C10.0643755,21.9329143 8.13306122,20.4137633 6.82359184,17.6576327 L8.8939102,17.6576327 Z M13.4025306,22.3166694 C14.1908082,20.7482449 14.7378122,19.1860898 15.1060898,17.6576327 L17.1913959,17.6576327 C15.8858449,20.4278204 13.9462531,21.9343837 13.4025306,22.3166694 Z M15.4167673,16.1576327 C15.6129306,14.9891755 15.7054531,13.8498122 15.722449,12.7500245 L18.3886041,12.7500245 C18.324098,14.016098 18.1023673,15.1508082 17.7771918,16.1576327 L15.4167673,16.1576327 Z M19.8882122,12.7500245 L22.4619918,12.7500245 C22.3763755,13.9522286 22.0955265,15.1003102 21.6376163,16.1576327 L19.3505633,16.1576327 C19.6428245,15.134498 19.8309551,13.9952327 19.8882122,12.7500245 Z M19.8866449,11.2500245 C19.826498,10.0038367 19.6345959,8.86540408 19.3401796,7.84241633 L21.6377143,7.84241633 C22.0956735,8.89973878 22.3764735,10.0477714 22.4620408,11.2500245 L19.8866449,11.2500245 Z M20.8314612,6.34246531 L18.8114449,6.34246531 C18.1409633,4.72741224 17.2668735,3.44982857 16.4443102,2.50070204 C18.2436735,3.3460898 19.7641469,4.68225306 20.8314612,6.34246531 Z M7.5552,2.50089796 C6.73273469,3.45002449 5.85874286,4.72755918 5.1883102,6.34246531 L3.16853878,6.34246531 C4.2357551,4.68235102 5.75608163,3.34633469 7.5552,2.50089796 Z M3.16858776,17.6576327 L5.17611429,17.6576327 C5.83645714,19.2561796 6.69820408,20.529502 7.51498776,21.4797061 C5.73350204,20.6332408 4.22782041,19.3052082 3.16858776,17.6576327 Z M16.4853551,21.4795102 C17.3019429,20.5294041 18.1635429,19.2560816 18.8237388,17.6576327 L20.8314122,17.6576327 C19.7722776,19.3051102 18.2666939,20.6330449 16.4853551,21.4795102 Z" id="Shape"></path>
                    </g>
                </g>
            </g>
        </g>
    </g>
</svg>